<svg xmlns="http://www.w3.org/2000/svg" version="1.1" xmlns:xlink="http://www.w3.org/1999/xlink" viewBox="0 0 200 200"><rect width="200" height="200" fill="url('#gradient')"></rect><defs><linearGradient id="gradient" gradientTransform="rotate(311 0.5 0.5)"><stop offset="0%" stop-color="#1a4f80"></stop><stop offset="100%" stop-color="#78214c"></stop></linearGradient></defs><g><g fill="#ffffff" transform="matrix(5.906973347937203,0,0,5.906973347937203,15.386317494316842,141.99795615898515)" stroke="#000000" stroke-width="0.5"><path d="M0.95-10.57L4.03-10.57L4.14-9.33Q5.26-10.76 7.16-10.76L7.16-10.76Q9.16-10.76 9.86-9.17L9.86-9.17Q10.94-10.76 12.97-10.76L12.97-10.76Q16.18-10.76 16.27-6.88L16.27-6.88L16.27 0L12.97 0L12.97-6.67Q12.97-7.48 12.70-7.85Q12.42-8.22 11.70-8.22L11.70-8.22Q10.72-8.22 10.24-7.35L10.24-7.35L10.25-7.22L10.25 0L6.95 0L6.95-6.65Q6.95-7.48 6.69-7.85Q6.43-8.22 5.68-8.22L5.68-8.22Q4.74-8.22 4.24-7.35L4.24-7.35L4.24 0L0.95 0L0.95-10.57ZM21.73-14.22L21.73-2.64L27.70-2.64L27.70 0L18.30 0L18.30-14.22L21.73-14.22Z"></path></g></g></svg>